<?xml version="1.0" encoding="UTF-8" standalone="no"?>
<!DOCTYPE svg PUBLIC "-//W3C//DTD SVG 1.1//EN" "http://www.w3.org/Graphics/SVG/1.1/DTD/svg11.dtd">
<svg version="1.1" xmlns="http://www.w3.org/2000/svg" xmlns:xlink="http://www.w3.org/1999/xlink" preserveAspectRatio="xMidYMid meet" viewBox="0 0 640 640" width="640" height="640"><defs><path d="M148.21 215.4L140.96 237.54L93.98 237.54L93.98 392.49L70.63 392.49L70.73 237.54L20 237.54L20 215.4L148.21 215.4Z" id="c3Z1yB6rPT"></path><path d="M264.68 392.49L249.38 348.24L180.03 348.22L164.94 392.51L139.77 392.49L202.4 217.17L226.35 213.95L290.99 392.49L264.68 392.49ZM243.67 327.75L215.38 241.19L186.1 327.75L243.67 327.75Z" id="a2bnzGJp6S"></path><path d="M375.99 215.82L376.77 215.82L377.54 215.82L378.29 215.83L379.04 215.83L379.78 215.84L380.52 215.85L381.24 215.85L381.95 215.86L382.66 215.87L383.36 215.88L384.05 215.9L384.72 215.91L385.4 215.92L386.06 215.94L386.71 215.95L387.36 215.97L387.99 215.99L388.62 216.01L389.24 216.03L389.85 216.05L390.45 216.07L391.04 216.09L391.56 216.12L392.11 216.17L392.69 216.23L393.3 216.32L393.95 216.42L394.62 216.54L395.33 216.68L396.06 216.85L396.82 217.03L397.6 217.23L398.41 217.45L399.24 217.69L400.09 217.95L400.96 218.23L401.85 218.53L402.77 218.86L403.69 219.2L404.64 219.57L405.6 219.96L406.57 220.37L407.55 220.8L408.55 221.26L409.56 221.73L410.57 222.23L411.6 222.75L412.63 223.3L413.66 223.87L414.7 224.46L415.74 225.07L416.79 225.71L417.84 226.37L418.88 227.06L419.93 227.77L420.97 228.51L422.01 229.27L423.04 230.05L424.07 230.86L425.09 231.7L426.1 232.56L427.1 233.45L427.6 233.91L428.1 234.38L428.59 234.85L429.08 235.33L429.56 235.81L430.02 236.3L430.49 236.8L430.94 237.3L431.39 237.81L431.83 238.32L432.26 238.84L432.69 239.36L433.11 239.89L433.52 240.43L433.93 240.97L434.32 241.52L434.71 242.07L435.1 242.62L435.47 243.19L435.84 243.76L436.2 244.33L436.55 244.91L436.9 245.49L437.24 246.08L437.57 246.68L437.9 247.28L438.21 247.89L438.52 248.5L438.83 249.12L439.12 249.74L439.41 250.37L439.69 251.01L439.97 251.65L440.23 252.29L440.49 252.95L440.75 253.6L440.99 254.27L441.23 254.93L441.46 255.61L441.68 256.29L441.81 256.67L441.93 257.06L442.04 257.45L442.16 257.84L442.27 258.23L442.37 258.62L442.48 259.01L442.58 259.4L442.67 259.8L442.77 260.19L442.86 260.58L442.95 260.98L443.03 261.37L443.11 261.77L443.19 262.17L443.27 262.56L443.34 262.96L443.41 263.36L443.47 263.76L443.54 264.16L443.6 264.56L443.65 264.96L443.71 265.36L443.75 265.76L443.8 266.16L443.84 266.57L443.88 266.97L443.92 267.37L443.95 267.78L443.98 268.18L444.01 268.58L444.04 268.99L444.06 269.39L444.07 269.8L444.09 270.2L444.1 270.61L444.11 271.01L444.11 271.42L444.11 271.82L444.11 272.23L444.1 273.45L444.09 274.68L444.08 275.94L444.07 277.22L444.06 278.52L444.05 279.83L444.05 281.17L444.04 282.52L444.03 283.9L444.03 285.29L444.02 286.7L444.02 288.14L444.02 289.59L444.01 291.06L444.01 292.55L444.01 294.07L444.01 295.6L444.01 297.15L444.01 298.72L444.01 300.3L444.02 301.91L444.02 303.54L444.02 305.19L444.03 306.86L444.03 308.54L444.04 310.25L444.04 311.98L444.05 313.72L444.06 315.49L444.07 317.27L444.08 319.07L444.09 320.9L444.1 322.74L444.11 324.6L444.12 326.48L444.13 328.39L444.14 330.31L444.16 332.25L444.17 334.21L444.19 336.19L444.17 338.41L444.08 340.59L443.93 342.73L443.7 344.82L443.41 346.88L443.05 348.89L442.62 350.86L442.12 352.79L441.55 354.68L440.91 356.53L440.2 358.33L439.42 360.1L438.58 361.82L437.66 363.5L436.68 365.14L435.63 366.73L434.51 368.29L433.32 369.8L432.06 371.27L430.73 372.7L429.33 374.08L427.86 375.43L426.33 376.73L424.72 378L423.05 379.22L421.31 380.39L419.5 381.53L417.61 382.63L415.67 383.68L413.65 384.69L411.56 385.66L409.4 386.59L407.18 387.47L404.88 388.32L402.52 389.12L400.08 389.88L397.58 390.6L395.01 391.28L392.37 391.91L389.66 392.51L314.43 392.51L314.43 216.09L341.79 216.09L342.26 216.09L342.73 216.09L343.2 216.09L343.66 216.09L344.13 216.09L344.6 216.09L345.07 216.09L345.54 216.09L346.01 216.08L346.48 216.08L346.95 216.08L347.41 216.08L347.88 216.08L348.35 216.07L348.82 216.07L349.29 216.07L349.76 216.06L350.23 216.06L350.7 216.06L351.17 216.05L351.63 216.05L352.1 216.05L352.57 216.04L353.04 216.04L353.51 216.03L353.98 216.03L354.45 216.02L354.92 216.02L355.38 216.01L355.85 216.01L356.32 216L356.79 215.99L357.26 215.99L357.73 215.98L358.2 215.97L358.67 215.97L359.13 215.96L359.6 215.95L360.07 215.95L360.54 215.94L361.47 215.92L362.4 215.91L363.31 215.9L364.22 215.88L365.12 215.87L366.01 215.86L366.89 215.85L367.76 215.85L368.62 215.84L369.47 215.83L370.32 215.83L371.16 215.82L371.98 215.82L372.8 215.82L373.61 215.82L374.42 215.82L375.21 215.82L375.99 215.82ZM337 369.18L340.8 369.18L341.77 369.21L342.75 369.24L343.74 369.27L344.73 369.29L345.74 369.31L346.75 369.32L347.77 369.33L348.8 369.34L349.84 369.35L350.89 369.35L351.95 369.35L353.01 369.34L354.09 369.33L355.17 369.32L356.26 369.31L357.36 369.29L358.47 369.27L359.59 369.24L360.71 369.21L361.85 369.18L362.99 369.14L364.14 369.1L365.3 369.06L366.47 369.01L367.65 368.96L368.84 368.91L370.03 368.85L371.24 368.79L372.45 368.73L373.67 368.66L374.9 368.59L376.14 368.51L377.38 368.44L378.64 368.36L379.9 368.27L381.17 368.18L382.45 368.09L383.74 368L385.04 367.9L386.35 367.8L387.65 367.68L388.93 367.52L390.18 367.33L391.41 367.11L392.62 366.85L393.8 366.56L394.96 366.24L396.1 365.88L397.21 365.48L398.3 365.06L399.37 364.6L400.41 364.1L401.43 363.57L402.43 363.01L403.4 362.41L404.35 361.78L405.28 361.11L406.18 360.41L407.06 359.68L407.92 358.91L408.75 358.11L409.56 357.27L410.35 356.4L411.11 355.5L411.85 354.56L412.57 353.59L413.27 352.58L413.94 351.54L414.58 350.46L415.21 349.36L415.81 348.21L416.39 347.04L416.94 345.82L417.47 344.58L417.98 343.3L418.46 341.99L418.92 340.64L419.36 339.26L419.78 337.84L420.17 336.39L420.29 335.23L420.4 334.05L420.51 332.86L420.61 331.65L420.71 330.42L420.81 329.18L420.9 327.93L420.98 326.66L421.06 325.38L421.14 324.08L421.21 322.76L421.28 321.43L421.34 320.09L421.39 318.73L421.45 317.35L421.49 315.96L421.54 314.56L421.57 313.14L421.61 311.7L421.64 310.25L421.66 308.79L421.68 307.31L421.69 305.81L421.7 304.3L421.71 302.77L421.7 301.23L421.7 299.68L421.69 298.1L421.68 296.52L421.66 294.92L421.63 293.3L421.6 291.67L421.57 290.02L421.53 288.36L421.49 286.68L421.44 284.99L421.39 283.28L421.33 281.56L421.27 279.82L421.2 278.07L421.11 276.33L420.99 274.63L420.82 272.96L420.61 271.33L420.36 269.74L420.07 268.18L419.74 266.66L419.37 265.18L418.96 263.73L418.51 262.33L418.02 260.96L417.49 259.62L416.92 258.33L416.31 257.07L415.66 255.85L414.96 254.66L414.23 253.51L413.46 252.4L412.65 251.33L411.8 250.29L410.91 249.29L409.98 248.33L409.01 247.4L407.99 246.52L406.94 245.67L405.85 244.85L404.72 244.07L403.55 243.33L402.33 242.63L401.08 241.97L399.79 241.34L398.46 240.75L397.08 240.19L395.67 239.67L394.22 239.19L392.72 238.75L391.19 238.35L389.62 237.98L388 237.65L386.35 237.35L338.04 237.35L337 369.18Z" id="bbishDfQ7"></path><path d="M484.01 323.62C480.79 369.64 502.87 393.1 550.27 394.02C597.66 394.94 620.89 371.48 619.97 323.62L619.97 214.23L597.89 215.82L597.89 323.62C596.05 355.83 580.17 372.28 550.27 372.97C520.36 373.66 505.63 357.21 506.1 323.62L506.1 214.23L484.01 216.99L484.01 323.62Z" id="c21sjeMtou"></path></defs><g><g><g><use xlink:href="#c3Z1yB6rPT" opacity="1" fill="#ffffff" fill-opacity="1"></use><g><use xlink:href="#c3Z1yB6rPT" opacity="1" fill-opacity="0" stroke="#000000" stroke-width="1" stroke-opacity="1"></use></g></g><g><use xlink:href="#a2bnzGJp6S" opacity="1" fill="#ffffff" fill-opacity="1"></use><g><use xlink:href="#a2bnzGJp6S" opacity="1" fill-opacity="0" stroke="#000000" stroke-width="1" stroke-opacity="1"></use></g></g><g><use xlink:href="#bbishDfQ7" opacity="1" fill="#ffffff" fill-opacity="1"></use><g><use xlink:href="#bbishDfQ7" opacity="1" fill-opacity="0" stroke="#000000" stroke-width="1" stroke-opacity="1"></use></g></g><g><use xlink:href="#c21sjeMtou" opacity="1" fill="#ffffff" fill-opacity="1"></use><g><use xlink:href="#c21sjeMtou" opacity="1" fill-opacity="0" stroke="#000000" stroke-width="1" stroke-opacity="1"></use></g></g></g></g></svg>